# xmcd
#
# Track frame offsets: 
#        150
#        20949
#        38225
#        56856
#        83734
#        114320
#        140467
#        157850
#        174432
#        201593
#        224655
#        249447
#        273916
#        294327
#
# Disc length: 4242 seconds
#
# Revision: 2
# Processed by: cddbd v1.5.2PL0 Copyright (c) Steve Scherf et al.
# Submitted via: ExactAudioCopy v1.3
#
DISCID=cf10900e
DTITLE=Various Artist - Jazz from Norway 2002 JazzCD.No 1st Set
DYEAR=2002
DGENRE=Jazz
TTITLE0=Dingobats - Demolition Woman
TTITLE1=Eldbjørg Raknes - The Red Wheel Barrow
TTITLE2=Frode Gjerstad - Shadows and Lights Part 12
TTITLE3=Karl Seglem - Alcalar
TTITLE4=Urban Connection - Tales of Dr. Faustus
TTITLE5=Trygve Seim - Intangible Waltz
TTITLE6=Jøkleba - Aapen slaabrok
TTITLE7=Paal Nilssen-Love - No Way Out II
TTITLE8=Jon Eberson Group - Pushing The Beat
TTITLE9=Shining - Hell's Bells
TTITLE10=Tri Ó Trang - Femkantgeneralen
TTITLE11=Sidsel og Bugge - Truth
TTITLE12=Søyr - Kammerspill 10.1
TTITLE13=Atomic - Nära grensen
EXTD=YEAR: 2002
EXTT0=
EXTT1=
EXTT2=
EXTT3=
EXTT4=
EXTT5=
EXTT6=
EXTT7=
EXTT8=
EXTT9=
EXTT10=
EXTT11=
EXTT12=
EXTT13=
PLAYORDER=
